<svg width="44" height="76" viewBox="0 0 44 76" fill="none" xmlns="http://www.w3.org/2000/svg">
    <path d="M36.6016 0.828995C38.1225 0.864562 39.4472 1.44848 40.54 2.54579C41.631 3.6413 42.204 4.9539 42.207 6.45009C42.21 7.9489 41.6361 9.26341 40.5391 10.3593L13.1846 37.6806L40.5391 65.0018C41.6384 66.1 42.1972 67.4219 42.1611 68.9286C42.1253 70.4213 41.5366 71.7281 40.4434 72.8173C39.3463 73.9101 38.0307 74.4823 36.5322 74.4823C35.0342 74.4822 33.7199 73.9106 32.623 72.8183L3.35254 43.6776L3.35156 43.6767C2.51607 42.8422 1.88096 41.8944 1.45703 40.8358C1.04078 39.7964 0.828126 38.743 0.828125 37.6806C0.828125 36.6181 1.04078 35.5647 1.45703 34.5253C1.88096 33.4667 2.51607 32.519 3.35156 31.6845L32.6221 2.44911C33.7264 1.34629 35.0674 0.793152 36.6016 0.828995Z" fill="white" stroke="#7A025A" stroke-width="1.65517"/>
</svg>
