<svg width="36" height="36" viewBox="0 0 36 36" fill="none" xmlns="http://www.w3.org/2000/svg">
    <path fill-rule="evenodd" clip-rule="evenodd" d="M0 8.7426C0 6.42392 0.921093 4.2002 2.56065 2.56065C4.2002 0.921093 6.42392 0 8.7426 0H18C18.4774 0 18.9352 0.189642 19.2728 0.527208C19.6104 0.864773 19.8 1.32261 19.8 1.8C19.8 2.27739 19.6104 2.73523 19.2728 3.07279C18.9352 3.41036 18.4774 3.6 18 3.6H8.7426C7.3787 3.6 6.07066 4.14181 5.10623 5.10623C4.14181 6.07066 3.6 7.3787 3.6 8.7426V27.2574C3.6 28.6213 4.14181 29.9293 5.10623 30.8938C6.07066 31.8582 7.3787 32.4 8.7426 32.4H27.2574C28.6213 32.4 29.9293 31.8582 30.8938 30.8938C31.8582 29.9293 32.4 28.6213 32.4 27.2574V18C32.4 17.5226 32.5896 17.0648 32.9272 16.7272C33.2648 16.3896 33.7226 16.2 34.2 16.2C34.6774 16.2 35.1352 16.3896 35.4728 16.7272C35.8104 17.0648 36 17.5226 36 18V27.2574C36 29.5761 35.0789 31.7998 33.4394 33.4394C31.7998 35.0789 29.5761 36 27.2574 36H8.7426C6.42392 36 4.2002 35.0789 2.56065 33.4394C0.921093 31.7998 0 29.5761 0 27.2574V8.7426Z" fill="white"/>
    <path fill-rule="evenodd" clip-rule="evenodd" d="M23.6467 20.1939L19.6777 22.5879L17.8183 19.5045L21.7873 17.1105L21.7927 17.1069C21.9449 17.0153 22.0851 16.9053 22.2103 16.7793L31.2283 7.71454C31.3187 7.62347 31.4057 7.52921 31.4893 7.43194C32.0851 6.73714 32.9671 5.36194 31.8997 4.28914C30.9979 3.38194 29.7055 4.23874 28.8685 4.97494C28.644 5.17288 28.4278 5.38006 28.2205 5.59594L28.1593 5.65714L19.2673 14.5941C19.0562 14.804 18.8908 15.0553 18.7813 15.3321L17.2981 19.0635C17.27 19.1338 17.2647 19.211 17.283 19.2844C17.3013 19.3578 17.3422 19.4236 17.4 19.4724C17.4578 19.5212 17.5295 19.5506 17.6049 19.5564C17.6803 19.5621 17.7538 19.544 17.8183 19.5045L19.6777 22.5879C16.4287 24.5463 12.5497 21.2559 13.9537 17.7315L15.4387 14.0019C15.7279 13.2731 16.1628 12.611 16.7167 12.0561L25.6069 3.11734L25.6591 3.06514C25.9237 2.79514 26.8129 1.88434 27.8911 1.22914C28.4797 0.874545 29.4193 0.404744 30.5803 0.314744C31.9123 0.208544 33.3343 0.627944 34.4503 1.74934C35.3045 2.59317 35.8417 3.70566 35.9713 4.89934C36.0605 5.82975 35.9183 6.76778 35.5573 7.62994C35.0353 8.92054 34.1641 9.86914 33.7807 10.2525L24.7627 19.3173C24.4267 19.6545 24.0547 19.9467 23.6467 20.1939ZM31.6621 7.36714C31.6621 7.36714 31.6549 7.37254 31.6387 7.37794L31.6621 7.36714Z" fill="white"/>
</svg>
