<svg width="21" height="78" viewBox="0 0 21 78" fill="none" xmlns="http://www.w3.org/2000/svg">
    <path d="M10.2061 25.5176C12.1905 25.5146 13.9111 26.1965 15.3184 27.5566C16.7262 28.9175 17.4422 30.5929 17.4365 32.5342V69.5342C17.4365 71.4792 16.7224 73.1562 15.3193 74.5156C13.9167 75.8745 12.1955 76.5535 10.207 76.5508V76.5517C8.22157 76.5517 6.50206 75.8721 5.09961 74.5166C3.69605 73.1598 2.97983 71.483 2.97656 69.5361V32.5342C2.97664 30.5887 3.69321 28.9132 5.09961 27.5566C6.50408 26.2021 8.22329 25.5206 10.2061 25.5176ZM10.2051 0.850571C12.759 0.844615 14.9752 1.73552 16.8076 3.50682C18.6408 5.27895 19.5729 7.4338 19.5635 9.92674C19.5541 12.4144 18.6239 14.5668 16.8105 16.3408C14.9933 18.1184 12.7755 19.0061 10.207 18.9951V18.9961L10.2051 18.9951L10.2031 18.9961V18.9951C7.64764 18.9942 5.4342 18.1068 3.61035 16.3437C1.785 14.5791 0.853796 12.4244 0.850586 9.92479C0.847453 7.42325 1.77987 5.26826 3.6123 3.50584C5.44147 1.74665 7.65426 0.856563 10.2051 0.850571Z" fill="white" stroke="#7A025A" stroke-width="1.70115"/>
</svg>
