<svg width="82" height="74" viewBox="0 0 82 74" fill="none" xmlns="http://www.w3.org/2000/svg">
    <path d="M73.7067 58.4703C75.5042 58.4713 77.2329 59.1644 78.5338 60.4049C79.8346 61.6454 80.6086 63.3389 80.6949 65.1344C80.7813 66.9298 80.1735 68.6898 78.9977 70.0494C77.8218 71.4091 76.1677 72.2646 74.3785 72.4381L74.359 72.44L74.3385 72.441L73.7457 72.4693L73.7262 72.4703H7.82288C6.0253 72.4693 4.29669 71.7772 2.99573 70.5367C1.69484 69.2962 0.921037 67.6027 0.834595 65.8072C0.748204 64.0116 1.35594 62.2509 2.53186 60.8912C3.70773 59.5316 5.36187 58.677 7.151 58.5035L7.17053 58.5016L7.19104 58.5006L7.78381 58.4713L7.80334 58.4703H73.7067ZM73.7057 29.6471C75.5622 29.6471 77.3431 30.3842 78.6559 31.6969C79.9686 33.0096 80.7057 34.7905 80.7057 36.6471C80.7057 38.5036 79.9686 40.2845 78.6559 41.5973C77.3431 42.9099 75.5622 43.6471 73.7057 43.6471H7.82385C5.9674 43.6471 4.1864 42.9099 2.87366 41.5973C1.5609 40.2845 0.823853 38.5036 0.823853 36.6471C0.823853 34.7906 1.5609 33.0096 2.87366 31.6969C4.1864 30.3842 5.96741 29.6471 7.82385 29.6471H73.7057ZM73.7057 0.823822C75.5622 0.823822 77.3431 1.56087 78.6559 2.87363C79.9686 4.18638 80.7057 5.96732 80.7057 7.82382C80.7056 9.68013 79.9684 11.4604 78.6559 12.773C77.3431 14.0858 75.5622 14.8238 73.7057 14.8238H7.82385C5.96734 14.8238 4.18641 14.0858 2.87366 12.773C1.5611 11.4604 0.823929 9.68014 0.823853 7.82382C0.823853 5.96731 1.5609 4.18638 2.87366 2.87363C4.18641 1.56087 5.96734 0.823822 7.82385 0.823822H73.7057Z" fill="white" stroke="#7A025A" stroke-width="1.64706"/>
</svg>
