<svg width="68" height="75" viewBox="0 0 68 75" fill="none" xmlns="http://www.w3.org/2000/svg">
    <path d="M6.12891 0.842773H15.3213C16.7222 0.842773 17.9424 1.36356 19.0166 2.45898C20.0908 3.55452 20.6074 4.80578 20.6074 6.25V68.75C20.6074 70.1942 20.0908 71.4455 19.0166 72.541C17.9424 73.6364 16.7222 74.1572 15.3213 74.1572H6.12891C4.72804 74.1572 3.50871 73.6364 2.43457 72.541C1.36023 71.4454 0.842773 70.1943 0.842773 68.75V6.25C0.842773 4.80566 1.36023 3.55459 2.43457 2.45898C3.50871 1.36362 4.72804 0.842773 6.12891 0.842773ZM52.0938 0.842773H61.2871C62.688 0.842792 63.9073 1.36358 64.9814 2.45898C66.0557 3.55457 66.5732 4.80568 66.5732 6.25V68.75C66.5732 70.1943 66.0557 71.4454 64.9814 72.541C63.9073 73.6364 62.688 74.1572 61.2871 74.1572H52.0938C50.6929 74.1572 49.4735 73.6364 48.3994 72.541C47.3252 71.4455 46.8076 70.1943 46.8076 68.75V6.25C46.8076 4.80572 47.3252 3.55456 48.3994 2.45898C49.4735 1.36362 50.6929 0.842829 52.0938 0.842773Z" fill="white" stroke="#7A025A" stroke-width="1.68539"/>
</svg>
